# xmcd CD database file generated by OrangeCD 6.5
#
# Track frame offsets:
#	150
#	13361
#	23998
#	35663
#	45481
#	55336
#	65624
#	76943
#	86354
#	96450
#	108597
#	120591
#	130895
#	144233
#	161873
#	172129
#	188693
#	194890
#	204128
#	211420
#
# Disc length: 3061 seconds
#
# Revision: 5
# Processed by: cddbd v1.5.2PL0 Copyright (c) Steve Scherf et al.
# Submitted via: OrangeCD 6.5
#
DISCID=250bf314
DTITLE=Various Artist - Legends Of Bluegrass (Gold Collection)
DYEAR=2001
DGENRE=Bluegrass
TTITLE0=Bill Monroe and The Bluegrass Boys - Orange Blossom Special
TTITLE1=Bill Monroe and The Bluegrass Boys - Uncle Penn
TTITLE2=Bill Monroe and The Bluegrass Boys - Bluegrass Breakdown
TTITLE3=Bill Monroe and The Bluegrass Boys - I Saw the Light
TTITLE4=Bill Monroe and The Bluegrass Boys - Shady Grove
TTITLE5=Bill Monroe and The Bluegrass Boys - Shenandoah Breakdown
TTITLE6=Bill Monroe and The Bluegrass Boys - Muleskinner Blues
TTITLE7=Bill Monroe and The Bluegrass Boys - Prison Song
TTITLE8=Bill Monroe and The Bluegrass Boys - Blue Moon of Kentucky
TTITLE9=Bill Monroe and The Bluegrass Boys - Can't You Hear Me Calling
TTITLE10=Doc Watson - Tom Dooley
TTITLE11=Doc Watson - Little Stream of Whiskey
TTITLE12=Doc Watson - Worried Blues
TTITLE13=Doc Watson - Doc's Talkin' Blues
TTITLE14=Doc Watson - Liza Jane
TTITLE15=Doc Watson - Midnight on the Stormy Deep
TTITLE16=Doc Watson - Doc's Guitar
TTITLE17=Doc Watson - In the Pines
TTITLE18=Doc Watson - Mama Blues
TTITLE19=Doc Watson - What would you Give in Exchange for your Soul?
EXTD=
EXTT0=
EXTT1=
EXTT2=
EXTT3=
EXTT4=
EXTT5=
EXTT6=
EXTT7=
EXTT8=
EXTT9=
EXTT10=
EXTT11=
EXTT12=
EXTT13=
EXTT14=
EXTT15=
EXTT16=
EXTT17=
EXTT18=
EXTT19=
PLAYORDER=
